<?xml version="1.0" encoding="utf-8"?>
<!-- Generator: Adobe Illustrator 24.1.0, SVG Export Plug-In . SVG Version: 6.00 Build 0)  -->
<svg version="1.1" id="Calque_1" xmlns="http://www.w3.org/2000/svg" xmlns:xlink="http://www.w3.org/1999/xlink" x="0px" y="0px"
	 viewBox="0 0 1266 500" style="enable-background:new 0 0 1266 500;" xml:space="preserve">
<style type="text/css">
	.st0{fill:#FFFFA1;}
	.st1{fill:#FFFFFF;}
	.st2{fill:#414C35;}
	.st3{fill:#EAF998;}
	.st4{fill:#B9E7CD;}
	.st5{fill:#BACDFE;}
	.st6{fill:#E2D6FB;}
	.st7{fill:#FFC3A0;}
	.st8{fill:#C3CCFF;}
	.st9{fill:#F3DBFF;}
</style>
<g>
	<g>
		<path d="M204.9,217.8c0,8.3-6.7,15-15,15s-15-6.7-15-15s-6.7-15-15-15s-15-6.7-15-15s-6.7-15-15-15s-15-6.7-15-15s6.7-15,15-15
			s15,6.7,15,15s6.7,15,15,15s15,6.7,15,15s6.7,15,15,15S204.9,209.5,204.9,217.8z"/>
		<path d="M294.9,157.8c0,8.3-6.7,15-15,15s-15,6.7-15,15s-6.7,15-15,15c-8.3,0-15,6.7-15,15s-6.7,15-15,15s-15-6.7-15-15
			s6.7-15,15-15s15-6.7,15-15s6.7-15,15-15c8.3,0,15-6.7,15-15s6.7-15,15-15S294.9,149.5,294.9,157.8z"/>
		<circle cx="129.9" cy="247.8" r="15"/>
		<circle cx="159.9" cy="247.8" r="15"/>
		<circle cx="189.9" cy="247.8" r="15"/>
		<circle cx="219.9" cy="247.8" r="15"/>
		<path d="M204.9,277.8c0,8.3-6.7,15-15,15s-15,6.7-15,15s-6.7,15-15,15s-15,6.7-15,15s-6.7,15-15,15s-15-6.7-15-15s6.7-15,15-15
			s15-6.7,15-15s6.7-15,15-15s15-6.7,15-15s6.7-15,15-15S204.9,269.5,204.9,277.8z"/>
		<path d="M294.9,337.8c0,8.3-6.7,15-15,15s-15-6.7-15-15s-6.7-15-15-15c-8.3,0-15-6.7-15-15s-6.7-15-15-15s-15-6.7-15-15
			s6.7-15,15-15s15,6.7,15,15s6.7,15,15,15c8.3,0,15,6.7,15,15s6.7,15,15,15S294.9,329.5,294.9,337.8z"/>
		<circle cx="249.9" cy="247.8" r="15"/>
		<circle cx="279.9" cy="247.8" r="15"/>
	</g>
	<path d="M946.9,188.9l-0.1,150c0,8.3-6.7,15-15,15s-15-6.7-15-15l0.1-150c0-8.3-6.7-15-15-15l-90,0c-8.3,0-15,6.7-15,15l-0.1,150
		c0,8.3-6.7,15-15,15c-8.3,0-15-6.7-15-15l0.1-150c0-8.3,6.7-15,15-15c8.3,0,15-6.7,15-15s6.7-15,15-15l90,0c8.3,0,15,6.7,15,15
		c0,8.3,6.7,15,15,15C940.2,173.9,946.9,180.6,946.9,188.9z"/>
	<path d="M530.4,158.7l-0.1,120c0,8.3-6.7,15-15,15s-15,6.7-15,15c0,8.3-6.7,15-15,15s-15,6.7-15,15s-6.7,15-15,15l-30,0
		c-8.3,0-15-6.7-15-15s-6.7-15-15-15s-15-6.7-15-15c0-8.3-6.7-15-15-15s-15-6.7-15-15l0.1-120c0-8.3,6.7-15,15-15
		c8.3,0,15,6.7,15,15l-0.1,120c0,8.3,6.7,15,15,15s15,6.7,15,15c0,8.3,6.7,15,15,15l30,0c8.3,0,15-6.7,15-15c0-8.3,6.7-15,15-15
		s15-6.7,15-15l0.1-120c0-8.3,6.7-15,15-15C523.7,143.7,530.4,150.4,530.4,158.7z"/>
	<path d="M588.9,308.2c0,8.3,6.7,15,15,15l90,0c8.3,0,15-6.7,15-15c0-8.3,6.7-15,15-15c8.3,0,15,6.7,15,15c0,8.3-6.7,15-15,15
		c-8.3,0-15,6.7-15,15s-6.7,15-15,15l-90,0c-8.3,0-15-6.7-15-15c0-8.3-6.7-15-15-15s-15-6.7-15-15l0.1-120c0-8.3,6.7-15,15-15
		c8.3,0,15-6.7,15-15s6.7-15,15-15l90,0c8.3,0,15,6.7,15,15c0,8.3,6.7,15,15,15c8.3,0,15,6.7,15,15l0,30c0,8.3-6.7,15-15,15
		c-8.3,0-15,6.7-15,15s-6.7,15-15,15l-90,0c-8.3,0-15-6.7-15-15s6.7-15,15-15l90,0c8.3,0,15-6.7,15-15l0-30c0-8.3-6.7-15-15-15
		l-90,0c-8.3,0-15,6.7-15,15L588.9,308.2z"/>
	<path d="M1124.4,188.5c0-8.3-6.7-15-15-15l-90,0c-8.3,0-15,6.7-15,15s-6.7,15-15,15c-8.3,0-15-6.7-15-15s6.7-15,15-15
		c8.3,0,15-6.7,15-15c0-8.3,6.7-15,15-15l90,0c8.3,0,15,6.7,15,15c0,8.3,6.7,15,15,15c8.3,0,15,6.7,15,15l-0.1,120
		c0,8.3-6.7,15-15,15c-8.3,0-15,6.7-15,15c0,8.3-6.7,15-15,15l-90,0c-8.3,0-15-6.7-15-15s-6.7-15-15-15c-8.3,0-15-6.7-15-15l0-30
		c0-8.3,6.7-15,15-15c8.3,0,15-6.7,15-15c0-8.3,6.7-15,15-15l90,0c8.3,0,15,6.7,15,15c0,8.3-6.7,15-15,15l-90,0c-8.3,0-15,6.7-15,15
		l0,30c0,8.3,6.7,15,15,15l90,0c8.3,0,15-6.7,15-15L1124.4,188.5z"/>
</g>
</svg>
