<?xml version="1.0" encoding="utf-8"?>
<!-- Generator: Adobe Illustrator 24.1.0, SVG Export Plug-In . SVG Version: 6.00 Build 0)  -->
<svg version="1.1" id="Calque_1" xmlns="http://www.w3.org/2000/svg" xmlns:xlink="http://www.w3.org/1999/xlink" x="0px" y="0px"
	 viewBox="0 0 1266 500" style="enable-background:new 0 0 1266 500;" xml:space="preserve">
<style type="text/css">
	.st0{fill:#FFFFA1;}
	.st1{fill:#FFFFFF;}
	.st2{fill:#414C35;}
	.st3{fill:#EAF998;}
	.st4{fill:#B9E7CD;}
	.st5{fill:#BACDFE;}
	.st6{fill:#E2D6FB;}
	.st7{fill:#FFC3A0;}
	.st8{fill:#C3CCFF;}
	.st9{fill:#F3DBFF;}
</style>
<g>
	<path d="M201.9,186.8c0,8.3-6.7,15-15,15s-15-6.7-15-15s-6.7-15-15-15s-15-6.7-15-15s-6.7-15-15-15s-15-6.7-15-15s6.7-15,15-15
		s15,6.7,15,15s6.7,15,15,15s15,6.7,15,15s6.7,15,15,15S201.9,178.5,201.9,186.8z"/>
	<path d="M291.9,126.8c0,8.3-6.7,15-15,15s-15,6.7-15,15s-6.7,15-15,15s-15,6.7-15,15s-6.7,15-15,15s-15-6.7-15-15s6.7-15,15-15
		s15-6.7,15-15s6.7-15,15-15s15-6.7,15-15s6.7-15,15-15S291.9,118.5,291.9,126.8z"/>
	<circle cx="126.9" cy="216.8" r="15"/>
	<circle cx="156.9" cy="216.8" r="15"/>
	<circle cx="186.9" cy="216.8" r="15"/>
	<circle cx="216.9" cy="216.8" r="15"/>
	<path d="M201.9,246.8c0,8.3-6.7,15-15,15s-15,6.7-15,15s-6.7,15-15,15s-15,6.7-15,15s-6.7,15-15,15s-15-6.7-15-15s6.7-15,15-15
		s15-6.7,15-15s6.7-15,15-15s15-6.7,15-15s6.7-15,15-15S201.9,238.5,201.9,246.8z"/>
	<path d="M291.9,306.8c0,8.3-6.7,15-15,15s-15-6.7-15-15s-6.7-15-15-15s-15-6.7-15-15s-6.7-15-15-15s-15-6.7-15-15s6.7-15,15-15
		s15,6.7,15,15s6.7,15,15,15s15,6.7,15,15s6.7,15,15,15S291.9,298.5,291.9,306.8z"/>
	<circle cx="246.9" cy="216.8" r="15"/>
	<circle cx="276.9" cy="216.8" r="15"/>
</g>
<path d="M943.9,157.9l-0.1,150c0,8.3-6.7,15-15,15s-15-6.7-15-15l0.1-150c0-8.3-6.7-15-15-15l-90,0c-8.3,0-15,6.7-15,15l-0.1,150
	c0,8.3-6.7,15-15,15c-8.3,0-15-6.7-15-15l0.1-150c0-8.3,6.7-15,15-15c8.3,0,15-6.7,15-15s6.7-15,15-15l90,0c8.3,0,15,6.7,15,15
	c0,8.3,6.7,15,15,15C937.2,142.9,943.9,149.6,943.9,157.9z"/>
<path d="M527.4,127.7l-0.1,120c0,8.3-6.7,15-15,15s-15,6.7-15,15c0,8.3-6.7,15-15,15s-15,6.7-15,15s-6.7,15-15,15l-30,0
	c-8.3,0-15-6.7-15-15s-6.7-15-15-15s-15-6.7-15-15c0-8.3-6.7-15-15-15s-15-6.7-15-15l0.1-120c0-8.3,6.7-15,15-15c8.3,0,15,6.7,15,15
	l-0.1,120c0,8.3,6.7,15,15,15s15,6.7,15,15c0,8.3,6.7,15,15,15l30,0c8.3,0,15-6.7,15-15c0-8.3,6.7-15,15-15s15-6.7,15-15l0.1-120
	c0-8.3,6.7-15,15-15S527.4,119.4,527.4,127.7z"/>
<path d="M585.9,277.2c0,8.3,6.7,15,15,15l90,0c8.3,0,15-6.7,15-15c0-8.3,6.7-15,15-15c8.3,0,15,6.7,15,15c0,8.3-6.7,15-15,15
	c-8.3,0-15,6.7-15,15s-6.7,15-15,15l-90,0c-8.3,0-15-6.7-15-15c0-8.3-6.7-15-15-15s-15-6.7-15-15l0.1-120c0-8.3,6.7-15,15-15
	c8.3,0,15-6.7,15-15s6.7-15,15-15l90,0c8.3,0,15,6.7,15,15c0,8.3,6.7,15,15,15c8.3,0,15,6.7,15,15l0,30c0,8.3-6.7,15-15,15
	c-8.3,0-15,6.7-15,15s-6.7,15-15,15l-90,0c-8.3,0-15-6.7-15-15s6.7-15,15-15l90,0c8.3,0,15-6.7,15-15l0-30c0-8.3-6.7-15-15-15l-90,0
	c-8.3,0-15,6.7-15,15L585.9,277.2z"/>
<path d="M1121.4,157.5c0-8.3-6.7-15-15-15l-90,0c-8.3,0-15,6.7-15,15s-6.7,15-15,15c-8.3,0-15-6.7-15-15s6.7-15,15-15
	c8.3,0,15-6.7,15-15c0-8.3,6.7-15,15-15l90,0c8.3,0,15,6.7,15,15c0,8.3,6.7,15,15,15c8.3,0,15,6.7,15,15l-0.1,120
	c0,8.3-6.7,15-15,15c-8.3,0-15,6.7-15,15c0,8.3-6.7,15-15,15l-90,0c-8.3,0-15-6.7-15-15s-6.7-15-15-15c-8.3,0-15-6.7-15-15l0-30
	c0-8.3,6.7-15,15-15c8.3,0,15-6.7,15-15c0-8.3,6.7-15,15-15l90,0c8.3,0,15,6.7,15,15c0,8.3-6.7,15-15,15l-90,0c-8.3,0-15,6.7-15,15
	l0,30c0,8.3,6.7,15,15,15l90,0c8.3,0,15-6.7,15-15L1121.4,157.5z"/>
<g>
	<path d="M348.6,390.6c-0.4-0.5-0.6-1-0.6-1.6v-36.1c0-0.6,0.2-1.2,0.6-1.6c0.4-0.4,0.9-0.7,1.6-0.7c0.6,0,1.2,0.2,1.6,0.7
		c0.4,0.4,0.7,1,0.7,1.6v36.1c0,0.6-0.2,1.2-0.7,1.6s-1,0.7-1.6,0.7C349.6,391.3,349,391,348.6,390.6z"/>
	<path d="M365.8,389.9c-2-1.1-3.5-2.8-4.7-5c-1.2-2.2-1.7-5-1.7-8.1c0-3,0.5-5.7,1.6-7.9c1.1-2.3,2.6-4.1,4.5-5.3
		c1.9-1.2,4.1-1.9,6.5-1.9c2.4,0,4.5,0.6,6.3,1.8c1.8,1.2,3.3,2.8,4.3,4.8c1,2,1.5,4.2,1.5,6.6c0,2.1-1,3.1-3.1,3.1h-17.2
		c0.2,3.2,1.1,5.6,2.7,7.1c1.6,1.5,3.5,2.3,5.9,2.3c1.8,0,3.4-0.4,4.6-1.3c1.2-0.9,2.1-2,2.5-3.3c0.4-1.1,1.1-1.6,2-1.6
		c0.7,0,1.2,0.2,1.6,0.7c0.4,0.5,0.5,1.1,0.5,1.7c-0.2,1.3-0.7,2.5-1.6,3.7c-0.9,1.2-2.2,2.2-3.8,3c-1.6,0.8-3.5,1.2-5.7,1.2
		C370,391.5,367.8,391,365.8,389.9z M379.9,374.2c-0.3-2.6-1.1-4.6-2.5-6.2c-1.4-1.6-3.2-2.3-5.5-2.3c-2.2,0-3.9,0.7-5.3,2.2
		c-1.4,1.5-2.3,3.6-2.6,6.3H379.9z"/>
	<path d="M509.9,390.6c-0.4-0.4-0.6-1-0.6-1.6v-24.9c0-0.7,0.2-1.2,0.6-1.6c0.4-0.4,0.9-0.6,1.6-0.6c0.7,0,1.2,0.2,1.6,0.6
		c0.4,0.4,0.6,1,0.6,1.6v1.1c2.3-2.4,5.2-3.6,8.5-3.6c2,0,3.8,0.4,5.3,1.2c1.6,0.8,2.8,2,3.7,3.6c0.9,1.6,1.3,3.4,1.3,5.6v16.9
		c0,0.7-0.2,1.2-0.6,1.6c-0.4,0.4-0.9,0.7-1.6,0.7c-0.7,0-1.2-0.2-1.6-0.7c-0.4-0.4-0.6-1-0.6-1.6v-16.8c0-2-0.6-3.6-1.8-4.8
		c-1.2-1.2-2.8-1.7-4.9-1.7c-2.2,0-4,0.6-5.5,1.8c-1.5,1.2-2.3,2.7-2.3,4.6v16.9c0,0.7-0.2,1.2-0.6,1.6c-0.4,0.4-1,0.7-1.6,0.7
		C510.8,391.3,510.3,391,509.9,390.6z"/>
	<path d="M545.5,390.3c-1.6-0.8-2.9-2-3.8-3.6s-1.4-3.5-1.4-5.7l0.1-16.9c0-0.6,0.2-1.2,0.6-1.6c0.4-0.4,0.9-0.7,1.5-0.7
		c0.6,0,1.2,0.2,1.6,0.7s0.7,1,0.7,1.6v16.8c0,2,0.6,3.6,1.9,4.8c1.2,1.2,2.9,1.7,4.8,1.7c2.1,0,3.9-0.6,5.4-1.8
		c1.5-1.2,2.3-2.7,2.3-4.6v-16.9c0-0.6,0.2-1.2,0.6-1.6c0.4-0.4,0.9-0.7,1.6-0.7c0.6,0,1.1,0.2,1.6,0.7c0.4,0.4,0.6,1,0.6,1.6v24.9
		c0,0.6-0.2,1.2-0.6,1.6c-0.4,0.5-0.9,0.7-1.6,0.7c-0.6,0-1.1-0.2-1.6-0.7c-0.4-0.5-0.6-1-0.6-1.6v-1.2c-2.2,2.5-5,3.7-8.5,3.7
		C548.8,391.5,547.1,391.1,545.5,390.3z"/>
	<path d="M572.9,390.6c-0.4-0.4-0.6-1-0.6-1.6v-24.9c0-0.7,0.2-1.2,0.6-1.6c0.4-0.4,0.9-0.6,1.6-0.6c0.7,0,1.2,0.2,1.6,0.6
		c0.4,0.4,0.6,1,0.6,1.6v1.1c1.1-1.2,2.3-2.2,3.7-2.8c1.4-0.6,3-0.9,4.6-0.9c1.9,0,3.6,0.4,5.1,1.2c1.5,0.8,2.7,1.9,3.6,3.4
		c2.4-3,5.5-4.6,9.2-4.6c1.9,0,3.7,0.4,5.3,1.3c1.6,0.8,2.8,2.1,3.6,3.6c0.9,1.6,1.3,3.4,1.3,5.6l0.1,16.9c0,0.7-0.2,1.2-0.6,1.6
		c-0.4,0.4-0.9,0.7-1.6,0.7c-0.6,0-1.1-0.2-1.6-0.7c-0.4-0.4-0.6-1-0.6-1.6v-16.8c0-2-0.6-3.6-1.8-4.8c-1.2-1.2-2.8-1.7-4.8-1.7
		c-1.9,0-3.6,0.5-5,1.6c-1.4,1.1-2.1,2.5-2.1,4.2v0.5v16.9c0,0.7-0.2,1.2-0.6,1.6c-0.4,0.4-0.9,0.7-1.6,0.7c-0.7,0-1.2-0.2-1.6-0.7
		c-0.4-0.4-0.6-1-0.6-1.6v-16.8c0-2-0.6-3.6-1.8-4.8c-1.2-1.2-2.7-1.7-4.7-1.7c-2.1,0-3.8,0.6-5.3,1.8c-1.5,1.2-2.2,2.7-2.3,4.6
		v16.8c0,0.7-0.2,1.2-0.6,1.6c-0.4,0.4-1,0.7-1.6,0.7C573.9,391.3,573.3,391,572.9,390.6z"/>
	<path d="M626.1,389.9c-2-1.1-3.5-2.8-4.7-5c-1.2-2.2-1.7-5-1.7-8.1c0-3,0.5-5.7,1.6-7.9c1.1-2.3,2.6-4.1,4.5-5.3
		c1.9-1.2,4.1-1.9,6.5-1.9c2.4,0,4.5,0.6,6.3,1.8c1.8,1.2,3.3,2.8,4.3,4.8c1,2,1.5,4.2,1.5,6.6c0,2.1-1,3.1-3.1,3.1h-17.2
		c0.2,3.2,1.1,5.6,2.7,7.1c1.6,1.5,3.5,2.3,5.9,2.3c1.8,0,3.4-0.4,4.6-1.3c1.2-0.9,2.1-2,2.5-3.3c0.4-1.1,1.1-1.6,2-1.6
		c0.7,0,1.2,0.2,1.6,0.7c0.4,0.5,0.5,1.1,0.5,1.7c-0.2,1.3-0.7,2.5-1.6,3.7c-0.9,1.2-2.2,2.2-3.8,3c-1.6,0.8-3.5,1.2-5.7,1.2
		C630.3,391.5,628.1,391,626.1,389.9z M640.2,374.2c-0.3-2.6-1.1-4.6-2.5-6.2c-1.4-1.6-3.2-2.3-5.5-2.3c-2.2,0-3.9,0.7-5.3,2.2
		c-1.4,1.5-2.3,3.6-2.6,6.3H640.2z M629.4,356.9c0-0.4,0.1-0.8,0.4-1.2l4.1-6.4c0.6-0.8,1.3-1.3,2.1-1.3c0.5,0,1,0.1,1.3,0.4
		c0.6,0.4,0.9,1,0.9,1.8c0,0.6-0.2,1.2-0.5,1.7l-4.5,6.1c-0.3,0.3-0.6,0.5-0.9,0.7c-0.3,0.2-0.7,0.3-1.1,0.3c-0.4,0-0.7-0.1-1-0.3
		C629.7,358.2,629.4,357.6,629.4,356.9z"/>
	<path d="M651.7,390.6c-0.4-0.5-0.6-1-0.6-1.6v-24.9c0-0.6,0.2-1.2,0.6-1.6c0.4-0.4,0.9-0.7,1.6-0.7c0.6,0,1.2,0.2,1.6,0.7
		s0.7,1,0.7,1.6v1.6c0.7-1.2,1.8-2.2,3.1-3c1.3-0.8,2.8-1.2,4.6-1.2c0.8,0,1.4,0.2,1.8,0.6c0.5,0.4,0.7,0.9,0.7,1.5
		c0,0.6-0.2,1.2-0.7,1.6s-1,0.7-1.6,0.7c-1.5,0-2.8,0.3-4,1c-1.2,0.7-2.1,1.5-2.8,2.5c-0.7,1-1,2.1-1,3.1v16.4
		c0,0.6-0.2,1.2-0.7,1.6s-1,0.7-1.6,0.7C652.7,391.3,652.2,391,651.7,390.6z"/>
	<path d="M674.4,357.5c-0.8,0-1.5-0.3-2-0.8c-0.5-0.5-0.7-1.3-0.7-2.3c0-1,0.2-1.7,0.7-2.3c0.5-0.5,1.1-0.8,2-0.8
		c0.8,0,1.5,0.3,2,0.8s0.7,1.3,0.7,2.3c0,1-0.2,1.8-0.7,2.3C676,357.3,675.3,357.5,674.4,357.5z M674.5,391.3c0.6,0,1.2-0.2,1.6-0.6
		s0.7-0.9,0.7-1.6v-25c0-0.6-0.2-1.1-0.7-1.6c-0.4-0.4-1-0.6-1.6-0.6c-0.7,0-1.2,0.2-1.6,0.6c-0.4,0.4-0.6,0.9-0.6,1.6v25
		c0,0.6,0.2,1.1,0.6,1.6C673.3,391,673.8,391.3,674.5,391.3z"/>
	<path d="M689.8,389.6c-1.8-1.3-3.2-3.1-4.2-5.4c-1-2.3-1.4-4.9-1.4-7.8c0-2.8,0.5-5.3,1.5-7.5c1-2.3,2.4-4,4.2-5.3
		c1.8-1.3,3.9-2,6.4-2c2,0,3.8,0.4,5.4,1.3c1.6,0.8,2.8,1.9,3.6,3.2l-0.1-1.9c0-0.7,0.2-1.3,0.7-1.7c0.4-0.4,1-0.6,1.6-0.6
		c0.6,0,1.1,0.2,1.6,0.7c0.4,0.5,0.6,1,0.6,1.7V400c0,0.6-0.2,1.2-0.6,1.6c-0.4,0.4-0.9,0.7-1.6,0.7c-0.6,0-1.2-0.2-1.6-0.7
		c-0.4-0.4-0.7-1-0.7-1.6v-13c-0.9,1.3-2.1,2.4-3.5,3.2c-1.5,0.9-3.3,1.3-5.3,1.3C693.8,391.5,691.6,390.9,689.8,389.6z
		 M690.8,384.5c1.5,2,3.5,2.9,6.1,2.9c2.6,0,4.6-1,6-3c1.5-2,2.2-4.6,2.2-8c0-3.4-0.7-6.1-2.1-8c-1.4-1.9-3.4-2.9-6.1-2.9
		c-2.7,0-4.7,1-6.2,2.9c-1.4,1.9-2.1,4.6-2.1,8C688.6,379.9,689.3,382.6,690.8,384.5z"/>
	<path d="M723,390.3c-1.6-0.8-2.9-2-3.8-3.6s-1.4-3.5-1.4-5.7l0.1-16.9c0-0.6,0.2-1.2,0.6-1.6c0.4-0.4,0.9-0.7,1.5-0.7
		c0.6,0,1.2,0.2,1.6,0.7s0.7,1,0.7,1.6v16.8c0,2,0.6,3.6,1.9,4.8c1.2,1.2,2.9,1.7,4.8,1.7c2.1,0,3.9-0.6,5.4-1.8
		c1.5-1.2,2.3-2.7,2.3-4.6v-16.9c0-0.6,0.2-1.2,0.6-1.6c0.4-0.4,0.9-0.7,1.6-0.7c0.6,0,1.1,0.2,1.6,0.7c0.4,0.4,0.6,1,0.6,1.6v24.9
		c0,0.6-0.2,1.2-0.6,1.6c-0.4,0.5-0.9,0.7-1.6,0.7c-0.6,0-1.1-0.2-1.6-0.7c-0.4-0.5-0.6-1-0.6-1.6v-1.2c-2.2,2.5-5,3.7-8.5,3.7
		C726.3,391.5,724.6,391.1,723,390.3z"/>
	<path d="M754.5,389.9c-2-1.1-3.5-2.8-4.7-5c-1.2-2.2-1.7-5-1.7-8.1c0-3,0.5-5.7,1.6-7.9c1.1-2.3,2.6-4.1,4.5-5.3
		c1.9-1.2,4.1-1.9,6.5-1.9c2.4,0,4.5,0.6,6.3,1.8c1.8,1.2,3.3,2.8,4.3,4.8c1,2,1.5,4.2,1.5,6.6c0,2.1-1,3.1-3.1,3.1h-17.2
		c0.2,3.2,1.1,5.6,2.7,7.1c1.6,1.5,3.5,2.3,5.9,2.3c1.8,0,3.4-0.4,4.6-1.3c1.2-0.9,2.1-2,2.5-3.3c0.4-1.1,1.1-1.6,2-1.6
		c0.7,0,1.2,0.2,1.6,0.7c0.4,0.5,0.5,1.1,0.5,1.7c-0.2,1.3-0.7,2.5-1.6,3.7c-0.9,1.2-2.2,2.2-3.8,3c-1.6,0.8-3.5,1.2-5.7,1.2
		C758.7,391.5,756.5,391,754.5,389.9z M768.6,374.2c-0.3-2.6-1.1-4.6-2.5-6.2c-1.4-1.6-3.2-2.3-5.5-2.3c-2.2,0-3.9,0.7-5.3,2.2
		c-1.4,1.5-2.3,3.6-2.6,6.3H768.6z"/>
	<path d="M900.9,390.4c-1.5-0.7-2.6-1.7-3.4-3c-0.8-1.3-1.2-2.7-1.2-4.3c0-1.6,0.4-3,1.2-4.4c0.8-1.4,2-2.5,3.6-3.3
		c1.6-0.8,3.6-1.3,6-1.3c2.7,0,4.6-0.3,5.8-0.9c1.2-0.6,1.8-1.5,1.8-2.8c0-1.4-0.5-2.5-1.4-3.4c-1-0.9-2.4-1.3-4.5-1.3
		c-1.7,0-3,0.3-4,1c-1,0.6-1.7,1.4-2.2,2.3c-0.5,1-1.2,1.5-2.2,1.5c-0.6,0-1.1-0.2-1.5-0.6c-0.3-0.4-0.5-0.8-0.5-1.3
		c0-0.3,0.1-0.6,0.2-0.8c0.3-0.9,0.8-1.9,1.7-2.8c0.9-1,2.1-1.8,3.5-2.4c1.5-0.6,3.2-1,5.1-1c3.6,0,6.2,1,7.8,2.9
		c1.6,1.9,2.4,4.5,2.4,7.6v13.7c0,0.4,0,0.7,0.1,0.9c0.1,0.2,0.3,0.3,0.5,0.3c0.5,0,1,0.2,1.3,0.6c0.4,0.4,0.5,0.9,0.5,1.5
		c0,0.7-0.3,1.2-0.8,1.6c-0.5,0.4-1.2,0.6-2.1,0.6c-1,0-1.8-0.3-2.4-0.9c-0.6-0.6-0.9-1.4-0.9-2.4V387h-0.2c-2.1,3-5.1,4.6-9.1,4.6
		C904.2,391.5,902.4,391.2,900.9,390.4z M902.1,386c0.9,0.9,2.4,1.3,4.4,1.3c1.5,0,2.9-0.3,4.2-1c1.3-0.7,2.3-1.6,3.1-2.8
		c0.8-1.2,1.2-2.5,1.2-3.9V376c0-0.1,0-0.1-0.1-0.1c-0.1,0-0.1,0-0.2,0.1c-0.7,0.6-1.7,1-3,1.4c-1.3,0.4-2.8,0.6-4.5,0.6
		c-2.2,0-3.8,0.5-4.8,1.5c-1.1,0.9-1.6,2-1.6,3.3C900.7,384.1,901.2,385.2,902.1,386z"/>
	<path d="M933.1,390.3c-1.6-0.8-2.9-2-3.8-3.6s-1.4-3.5-1.4-5.7l0.1-16.9c0-0.6,0.2-1.2,0.6-1.6c0.4-0.4,0.9-0.7,1.5-0.7
		c0.6,0,1.2,0.2,1.6,0.7s0.7,1,0.7,1.6v16.8c0,2,0.6,3.6,1.9,4.8c1.2,1.2,2.9,1.7,4.8,1.7c2.1,0,3.9-0.6,5.4-1.8
		c1.5-1.2,2.3-2.7,2.3-4.6v-16.9c0-0.6,0.2-1.2,0.6-1.6c0.4-0.4,0.9-0.7,1.6-0.7c0.6,0,1.1,0.2,1.6,0.7c0.4,0.4,0.6,1,0.6,1.6v24.9
		c0,0.6-0.2,1.2-0.6,1.6c-0.4,0.5-0.9,0.7-1.6,0.7c-0.6,0-1.1-0.2-1.6-0.7c-0.4-0.5-0.6-1-0.6-1.6v-1.2c-2.2,2.5-5,3.7-8.5,3.7
		C936.4,391.5,934.7,391.1,933.1,390.3z"/>
	<path d="M963.2,389.4c-1.1-1.2-1.6-2.9-1.6-5v-18h-1.8c-0.6,0-1.1-0.2-1.5-0.6c-0.4-0.4-0.6-0.9-0.6-1.5c0-0.5,0.2-1,0.6-1.4
		c0.4-0.4,0.9-0.6,1.5-0.6h1.8v-3.8c0-0.6,0.2-1.1,0.6-1.6c0.4-0.4,0.9-0.6,1.6-0.6c0.6,0,1.1,0.2,1.6,0.6c0.4,0.4,0.6,0.9,0.6,1.6
		v3.8h5.4c0.6,0,1.1,0.2,1.5,0.6c0.4,0.4,0.6,0.9,0.6,1.4c0,0.6-0.2,1.1-0.6,1.5c-0.4,0.4-0.9,0.6-1.5,0.6H966v17.9
		c0,0.8,0.1,1.4,0.4,1.9c0.2,0.4,0.7,0.7,1.3,0.7c0.4,0,0.8-0.1,1-0.3c0.3-0.2,0.4-0.3,0.4-0.3c0.3-0.2,0.5-0.4,0.7-0.5
		c0.2-0.1,0.5-0.2,0.9-0.2c0.6,0,1.1,0.2,1.5,0.6c0.4,0.4,0.6,0.9,0.6,1.5c0,1-0.5,1.9-1.5,2.6c-1,0.7-2.2,1-3.6,1
		C965.8,391.3,964.3,390.6,963.2,389.4z"/>
	<path d="M981.2,390.6c-0.4-0.5-0.6-1-0.6-1.6v-24.9c0-0.6,0.2-1.2,0.6-1.6c0.4-0.4,0.9-0.7,1.6-0.7c0.6,0,1.2,0.2,1.6,0.7
		s0.7,1,0.7,1.6v1.6c0.7-1.2,1.8-2.2,3.1-3c1.3-0.8,2.8-1.2,4.6-1.2c0.8,0,1.4,0.2,1.8,0.6c0.5,0.4,0.7,0.9,0.7,1.5
		c0,0.6-0.2,1.2-0.7,1.6s-1,0.7-1.6,0.7c-1.5,0-2.8,0.3-4,1c-1.2,0.7-2.1,1.5-2.8,2.5c-0.7,1-1,2.1-1,3.1v16.4
		c0,0.6-0.2,1.2-0.7,1.6s-1,0.7-1.6,0.7C982.2,391.3,981.7,391,981.2,390.6z"/>
	<path d="M1004.8,389.9c-2-1.1-3.5-2.8-4.7-5c-1.2-2.2-1.7-5-1.7-8.1c0-3,0.5-5.7,1.6-7.9c1.1-2.3,2.6-4.1,4.5-5.3
		c1.9-1.2,4.1-1.9,6.5-1.9c2.4,0,4.5,0.6,6.3,1.8c1.8,1.2,3.3,2.8,4.3,4.8c1,2,1.5,4.2,1.5,6.6c0,2.1-1,3.1-3.1,3.1h-17.2
		c0.2,3.2,1.1,5.6,2.7,7.1s3.5,2.3,5.9,2.3c1.8,0,3.4-0.4,4.6-1.3c1.2-0.9,2.1-2,2.5-3.3c0.4-1.1,1.1-1.6,2-1.6
		c0.7,0,1.2,0.2,1.6,0.7c0.4,0.5,0.5,1.1,0.5,1.7c-0.2,1.3-0.7,2.5-1.6,3.7c-0.9,1.2-2.2,2.2-3.8,3c-1.6,0.8-3.5,1.2-5.7,1.2
		C1009,391.5,1006.8,391,1004.8,389.9z M1018.9,374.2c-0.3-2.6-1.1-4.6-2.5-6.2c-1.4-1.6-3.2-2.3-5.5-2.3c-2.2,0-3.9,0.7-5.3,2.2
		c-1.4,1.5-2.3,3.6-2.6,6.3H1018.9z"/>
	<path d="M1030.4,390.6c-0.4-0.4-0.6-1-0.6-1.6v-24.9c0-0.7,0.2-1.2,0.6-1.6c0.4-0.4,0.9-0.6,1.6-0.6c0.7,0,1.2,0.2,1.6,0.6
		c0.4,0.4,0.6,1,0.6,1.6v1.1c1.1-1.2,2.3-2.2,3.7-2.8c1.4-0.6,3-0.9,4.6-0.9c1.9,0,3.6,0.4,5.1,1.2c1.5,0.8,2.7,1.9,3.6,3.4
		c2.4-3,5.5-4.6,9.2-4.6c1.9,0,3.7,0.4,5.3,1.3c1.6,0.8,2.8,2.1,3.6,3.6c0.9,1.6,1.3,3.4,1.3,5.6l0.1,16.9c0,0.7-0.2,1.2-0.6,1.6
		c-0.4,0.4-0.9,0.7-1.6,0.7c-0.6,0-1.1-0.2-1.6-0.7c-0.4-0.4-0.6-1-0.6-1.6v-16.8c0-2-0.6-3.6-1.8-4.8s-2.8-1.7-4.8-1.7
		c-1.9,0-3.6,0.5-5,1.6c-1.4,1.1-2.1,2.5-2.1,4.2v0.5v16.9c0,0.7-0.2,1.2-0.6,1.6c-0.4,0.4-0.9,0.7-1.6,0.7c-0.7,0-1.2-0.2-1.6-0.7
		c-0.4-0.4-0.6-1-0.6-1.6v-16.8c0-2-0.6-3.6-1.8-4.8c-1.2-1.2-2.7-1.7-4.7-1.7c-2.1,0-3.8,0.6-5.3,1.8c-1.5,1.2-2.2,2.7-2.3,4.6
		v16.8c0,0.7-0.2,1.2-0.6,1.6c-0.4,0.4-1,0.7-1.6,0.7C1031.4,391.3,1030.8,391,1030.4,390.6z"/>
	<path d="M1083.6,389.9c-2-1.1-3.5-2.8-4.7-5c-1.2-2.2-1.7-5-1.7-8.1c0-3,0.5-5.7,1.6-7.9c1.1-2.3,2.6-4.1,4.5-5.3
		c1.9-1.2,4.1-1.9,6.5-1.9c2.4,0,4.5,0.6,6.3,1.8c1.8,1.2,3.3,2.8,4.3,4.8c1,2,1.5,4.2,1.5,6.6c0,2.1-1,3.1-3.1,3.1h-17.2
		c0.2,3.2,1.1,5.6,2.7,7.1s3.5,2.3,5.9,2.3c1.8,0,3.4-0.4,4.6-1.3c1.2-0.9,2.1-2,2.5-3.3c0.4-1.1,1.1-1.6,2-1.6
		c0.7,0,1.2,0.2,1.6,0.7c0.4,0.5,0.5,1.1,0.5,1.7c-0.2,1.3-0.7,2.5-1.6,3.7c-0.9,1.2-2.2,2.2-3.8,3c-1.6,0.8-3.5,1.2-5.7,1.2
		C1087.8,391.5,1085.6,391,1083.6,389.9z M1097.7,374.2c-0.3-2.6-1.1-4.6-2.5-6.2c-1.4-1.6-3.2-2.3-5.5-2.3c-2.2,0-3.9,0.7-5.3,2.2
		c-1.4,1.5-2.3,3.6-2.6,6.3H1097.7z"/>
	<path d="M1109.2,390.6c-0.4-0.4-0.6-1-0.6-1.6v-24.9c0-0.7,0.2-1.2,0.6-1.6c0.4-0.4,0.9-0.6,1.6-0.6c0.7,0,1.2,0.2,1.6,0.6
		c0.4,0.4,0.6,1,0.6,1.6v1.1c2.3-2.4,5.2-3.6,8.5-3.6c2,0,3.8,0.4,5.3,1.2c1.6,0.8,2.8,2,3.7,3.6c0.9,1.6,1.3,3.4,1.3,5.6v16.9
		c0,0.7-0.2,1.2-0.6,1.6c-0.4,0.4-0.9,0.7-1.6,0.7c-0.7,0-1.2-0.2-1.6-0.7s-0.6-1-0.6-1.6v-16.8c0-2-0.6-3.6-1.8-4.8
		s-2.8-1.7-4.9-1.7c-2.2,0-4,0.6-5.5,1.8c-1.5,1.2-2.3,2.7-2.3,4.6v16.9c0,0.7-0.2,1.2-0.6,1.6c-0.4,0.4-1,0.7-1.6,0.7
		C1110.2,391.3,1109.6,391,1109.2,390.6z"/>
	<path d="M1143.4,389.4c-1.1-1.2-1.6-2.9-1.6-5v-18h-1.8c-0.6,0-1.1-0.2-1.5-0.6c-0.4-0.4-0.6-0.9-0.6-1.5c0-0.5,0.2-1,0.6-1.4
		c0.4-0.4,0.9-0.6,1.5-0.6h1.8v-3.8c0-0.6,0.2-1.1,0.6-1.6c0.4-0.4,0.9-0.6,1.6-0.6c0.6,0,1.1,0.2,1.6,0.6c0.4,0.4,0.6,0.9,0.6,1.6
		v3.8h5.4c0.6,0,1.1,0.2,1.5,0.6c0.4,0.4,0.6,0.9,0.6,1.4c0,0.6-0.2,1.1-0.6,1.5c-0.4,0.4-0.9,0.6-1.5,0.6h-5.4v17.9
		c0,0.8,0.1,1.4,0.4,1.9c0.2,0.4,0.7,0.7,1.3,0.7c0.4,0,0.8-0.1,1-0.3c0.3-0.2,0.4-0.3,0.4-0.3c0.3-0.2,0.5-0.4,0.7-0.5
		c0.2-0.1,0.5-0.2,0.9-0.2c0.6,0,1.1,0.2,1.5,0.6c0.4,0.4,0.6,0.9,0.6,1.5c0,1-0.5,1.9-1.5,2.6c-1,0.7-2.2,1-3.6,1
		C1146,391.3,1144.5,390.6,1143.4,389.4z"/>
</g>
</svg>
